<?xml version="1.0" encoding="UTF-8" standalone="no"?>
<!-- Created with Inkscape (http://www.inkscape.org/) -->

<svg
   width="392.89178"
   height="446.69589"
   viewBox="0 0 392.89178 446.69589"
   version="1.1"
   id="svg1"
   xml:space="preserve"
   xmlns="http://www.w3.org/2000/svg"
   xmlns:svg="http://www.w3.org/2000/svg"><defs
     id="defs1" /><g
     id="layer1"
     transform="translate(-59.554119,-48.007191)"><path
       id="path2-12-5"
       style="display:inline;fill:#000000;fill-opacity:1;stroke-width:16.3705"
       d="m 250.87305,124.63086 c -7.71488,0.0971 -15.41441,0.68773 -23.07695,1.56269 -21.39296,2.3245 -42.79564,6.7091 -62.51448,15.5502 -14.5813,6.57589 -28.14573,15.75366 -38.8324,27.72891 -4.75533,5.46569 -8.0059,12.15037 -9.67577,19.18282 -2.52087,10.20844 -2.09195,20.81046 -1.777,31.23093 0.18203,5.35125 0.23018,10.70849 0.0331,16.05929 0.25957,55.55871 -0.57392,111.12314 0.44893,166.67735 2.15663,12.18976 8.8054,23.32614 17.79622,31.72983 9.71376,9.24851 21.64191,15.78249 33.88472,21.05075 6.97569,3.03121 14.1769,5.53498 21.53238,7.47111 37.04074,10.18892 76.42142,12.01731 114.1827,4.82271 15.26506,-2.9638 30.3074,-7.27971 44.61494,-13.40231 12.39061,-5.52888 24.2562,-12.70019 33.75912,-22.48778 7.05368,-7.33125 12.593,-16.3817 14.69963,-26.41573 1.15223,-5.27521 1.09396,-10.70337 1.01202,-16.07209 -0.21751,-65.1414 0.55351,-130.28725 -0.43095,-195.42501 -2.14136,-12.00358 -8.60508,-23.00211 -17.4043,-31.35156 -9.62339,-9.29966 -21.49638,-15.87624 -33.68904,-21.18035 -16.15576,-7.05487 -33.39175,-11.37459 -50.79131,-13.9815 -14.48243,-2.13222 -29.13944,-2.94768 -43.7716,-2.75026 z" /><g
       id="g3"
       transform="matrix(16.37049,0,0,16.37049,59.55412,101.81133)"
       style="display:inline"><path
         d="M 0,0 H 24 V 24 H 0 Z"
         fill="none"
         id="path1-0" /><path
         fill="currentColor"
         d="M 12,10 C 16.418,10 20,8.21 20,6 20,3.79 16.418,2 12,2 7.582,2 4,3.79 4,6 c 0,2.21 3.582,4 8,4"
         id="path2-12"
         style="fill:#ceada4;fill-opacity:1" /><path
         fill="currentColor"
         d="m 4,12 v 6 c 0,2.21 3.582,4 8,4 4.418,0 8,-1.79 8,-4 v -6 c 0,2.21 -3.582,4 -8,4 -4.418,0 -8,-1.79 -8,-4"
         opacity="0.5"
         id="path3-98"
         style="fill:#ceada4;fill-opacity:1" /><path
         fill="currentColor"
         d="m 4,6 v 6 c 0,2.21 3.582,4 8,4 4.418,0 8,-1.79 8,-4 V 6 c 0,2.21 -3.582,4 -8,4 C 7.582,10 4,8.21 4,6"
         opacity="0.7"
         id="path4-46"
         style="fill:#ceada4;fill-opacity:1" /></g><path
       id="path2-1"
       style="display:inline;fill:#000000"
       d="m 10.857679,-2.4079138 c -0.18431,-0.00222 -0.368878,0.00269 -0.552897,0.00177 C 6.2809392,-2.2042475 2.7206453,0.84298115 1.5650335,4.650145 0.5887931,6.9766309 -0.1827009,9.6474015 0.46322092,12.147424 0.35513476,12.54437 0.29709419,12.951103 0.30089045,13.357162 -1.8827548,13.652652 -3.065667,16.479345 -2.0234873,18.36331 c 0.346192,0.848627 0.7056877,1.699075 1.20531484,2.470785 -1.62275364,0.803167 -2.39172414,3.090245 -1.25795054,4.599658 0.6058163,0.979651 1.55373231,1.695221 2.55482503,2.236357 -1.39853376,1.099021 -1.83574183,3.32849 -0.63693699,4.732353 1.31477406,1.496743 3.52686896,1.431248 5.34319366,1.256181 0.6609604,-0.07724 1.3173808,-0.198837 1.9594659,-0.375527 0.116175,1.820889 0.516016,4.011997 2.2898769,4.944223 2.0740615,1.008568 4.5972525,-0.542698 5.2600385,-2.608345 0.497576,-1.316311 0.665383,-2.75358 0.550685,-4.161322 1.680524,0.362031 3.445355,0.371691 5.152112,0.07077 0.0935,0.130676 0.192537,0.257444 0.29591,0.380835 -0.0053,1.156305 0.217925,2.323164 0.472838,3.436364 0.650827,1.971928 2.749715,3.697685 4.900434,3.089144 1.634065,-0.455953 2.503138,-2.173586 2.607461,-3.763678 0.09693,-0.454119 0.151654,-0.916387 0.195504,-1.378261 1.6957,0.470186 3.510298,0.555232 5.246768,0.310064 1.724511,-0.376945 3.219237,-2.185527 2.644616,-3.987491 -0.193409,-0.765757 -0.680363,-1.432716 -1.274317,-1.941773 1.513258,-0.791154 3.111846,-2.105576 3.104184,-3.968913 0.01041,-1.192891 -0.699568,-2.370118 -1.782097,-2.884352 0.936054,-1.470322 1.758951,-3.232053 1.479994,-5.013225 -0.281779,-1.236564 -1.341216,-2.305122 -2.601711,-2.470785 0.0023,-0.384702 -0.0526,-0.766418 -0.153484,-1.137197 0.493418,-1.607786 0.204513,-3.4310666 -0.22337,-5.0269374 -0.574551,-1.8980155 -1.259494,-3.8061622 -2.350917,-5.473235 -1.950773,-2.8055381 -5.502424,-4.5619902 -8.919772,-4.0016451 -0.769642,0.2082672 -1.363207,0.7472987 -1.731672,1.42072335 -1.114575,0.81511182 -1.76472,2.28713195 -1.886926,3.64646425 -0.133563,0.8763224 -0.129957,1.7665796 -0.008,2.63975 -0.99889,0.26393 -1.834633,0.9483633 -2.388513,1.8210206 C 17.848105,6.9453094 17.638947,6.6859764 17.398226,6.4552413 16.891797,5.9256206 16.262515,5.5809935 15.581628,5.4073915 15.807155,3.8499536 15.648444,2.2454279 15.017674,0.78694443 14.731601,0.16474725 14.276295,-0.44898744 13.709299,-0.88722676 13.241487,-1.7341809 12.409659,-2.3659938 11.408364,-2.367663 11.225747,-2.396396 11.041989,-2.405691 10.857679,-2.4079138 Z"
       transform="matrix(4.4156644,0,0,4.4156644,176.90965,58.642305)" /><g
       id="g26"
       transform="matrix(4.4156644,0,0,4.4156644,176.90965,58.642305)"
       style="display:inline"><path
         d="M 0,0 H 36 V 36 H 0 Z"
         fill="none"
         id="path1" /><path
         fill="#a1300b"
         d="M 6.96,20.637 C 7.028,21.276 6.417,21.865 5.592,21.952 4.768,22.041 4.045,21.595 3.977,20.957 3.909,20.318 4.521,19.73 5.345,19.643 6.169,19.554 6.892,19.999 6.96,20.637 m 2.087,2.717 c 0.125,0.818 -1.756,2.544 -2.576,2.669 A 1.5,1.5 0 0 1 4.763,24.766 c -0.125,-0.818 0.58,-1.14 1.398,-1.265 0.819,-0.124 2.761,-0.965 2.886,-0.147 m 1.783,2.104 c 0.173,0.81 -1.628,3.927 -2.438,4.1 -0.81,0.173 -1.645,0.146 -1.817,-0.665 -0.173,-0.81 0.306,-1.688 1.116,-1.861 0.81,-0.173 2.966,-2.384 3.139,-1.574 m 3.853,0.858 c 0.165,0.811 -1.338,4.354 -2.15,4.519 -0.812,0.165 -1.439,0.451 -1.604,-0.36 -0.165,-0.812 0.261,-1.975 1.006,-2.58 0.644,-0.523 2.584,-2.39 2.748,-1.579"
         id="path2" /><path
         fill="#a1300b"
         d="m 3.925,18.869 c 0.607,0.715 1.18,1.23 0.464,1.835 C 3.673,21.31 2.642,20.866 2.035,20.15 1.43,19.435 -0.204,16.73 0.511,16.125 1.228,15.519 3.32,18.154 3.925,18.869 m 0.33,4.88 C 5.147,24.044 6.112,24.55 5.818,25.44 5.524,26.331 4.49,26.431 3.599,26.138 2.71,25.843 -0.173,24.447 0.121,23.557 c 0.295,-0.89 3.244,-0.102 4.134,0.192 m 1.214,4.532 C 6.374,28.028 7.376,27.998 7.628,28.9 7.88,29.803 7.346,30.435 6.442,30.687 5.54,30.938 2.1,31.414 1.848,30.511 1.597,29.606 4.566,28.531 5.469,28.281 m 4.348,3.188 c 0.084,-0.937 0.644,-1.669 1.577,-1.585 0.934,0.085 1.258,1.025 1.173,1.96 -0.085,0.934 0.147,3.562 -1.715,4.016 C 9.94,36.081 9.731,32.4 9.817,31.469 M 29.04,20.637 c -0.068,0.639 0.543,1.228 1.367,1.315 0.824,0.089 1.547,-0.357 1.615,-0.995 0.068,-0.639 -0.544,-1.227 -1.367,-1.314 -0.824,-0.089 -1.547,0.356 -1.615,0.994 m -2.087,2.717 c -0.125,0.818 1.757,2.544 2.575,2.669 0.818,0.125 1.584,-0.438 1.709,-1.257 0.125,-0.819 -0.58,-1.14 -1.398,-1.265 -0.819,-0.124 -2.761,-0.965 -2.886,-0.147 m -1.783,2.104 c -0.173,0.81 1.628,3.927 2.438,4.1 0.81,0.173 1.644,0.146 1.816,-0.665 0.174,-0.81 -0.305,-1.688 -1.115,-1.861 -0.81,-0.173 -2.966,-2.384 -3.139,-1.574 m -3.853,0.858 c -0.166,0.811 1.338,4.354 2.149,4.519 0.812,0.165 1.438,0.451 1.604,-0.36 0.164,-0.812 -0.262,-1.975 -1.007,-2.58 -0.642,-0.523 -2.582,-2.39 -2.746,-1.579"
         id="path3" /><path
         fill="#a1300b"
         d="m 32.075,18.869 c -0.607,0.715 -1.18,1.23 -0.465,1.835 0.716,0.606 1.747,0.162 2.354,-0.554 0.605,-0.715 2.239,-3.42 1.523,-4.025 -0.715,-0.606 -2.807,2.029 -3.412,2.744 m -0.33,4.88 c -0.892,0.295 -1.857,0.801 -1.562,1.691 0.293,0.891 1.328,0.991 2.219,0.698 0.889,-0.295 3.771,-1.691 3.477,-2.581 -0.294,-0.89 -3.244,-0.102 -4.134,0.192 m -1.215,4.532 c -0.904,-0.253 -1.906,-0.283 -2.158,0.619 -0.252,0.903 0.282,1.535 1.185,1.787 0.902,0.251 4.343,0.727 4.594,-0.177 0.251,-0.904 -2.717,-1.979 -3.621,-2.229 m -4.347,3.188 c -0.084,-0.937 -0.645,-1.669 -1.577,-1.585 -0.935,0.085 -1.258,1.025 -1.173,1.96 0.084,0.934 -0.147,3.562 1.715,4.016 0.912,0.221 1.121,-3.46 1.035,-4.391 M 3.148,13.878 a 1.6974581,1.6974581 0 1 1 3.1,-1.384 c 0.381,0.855 2.651,5.612 1.795,5.994 C 7.187,18.87 3.53,14.733 3.148,13.878"
         id="path4" /><path
         fill="#a1300b"
         d="M 3.994,12.034 C 5.215,14.99 12.335,8.693 12.797,5.753 13.259,2.813 12.489,1.552 12.103,1.253 11.717,0.954 12.247,2.688 10.916,4.559 9.863,6.041 3.15,9.993 3.994,12.034 m 28.858,1.844 a 1.699,1.699 0 0 0 -3.101,-1.384 c -0.381,0.855 -2.65,5.612 -1.794,5.994 0.856,0.382 4.513,-3.755 4.895,-4.61"
         id="path5" /><path
         fill="#a1300b"
         d="m 32.007,12.034 c -1.222,2.956 -8.341,-3.341 -8.804,-6.281 -0.461,-2.939 0.309,-4.201 0.694,-4.5 0.386,-0.299 -0.144,1.435 1.187,3.306 1.054,1.482 7.766,5.434 6.923,7.475"
         id="path6" /><path
         fill="#d34516"
         d="m 6,22 c 0,-2 2,-10 12,-10 10,0 12,8 12,10 -5,3 -5.373,7 -12,7 -6.627,0 -6,-4 -12,-7 M 4.323,12.223 C 1.17,12.766 3.965,4.082 6.206,2.124 8.447,0.166 10.863,0.207 11.321,0.374 11.779,0.541 10.147,2.969 9.571,4.552 9.278,5.355 6.499,11.848 4.323,12.223 m 27.354,0 c 3.152,0.543 0.358,-8.141 -1.882,-10.099 -2.24,-1.958 -4.656,-1.917 -5.115,-1.75 -0.459,0.167 1.174,2.595 1.75,4.178 0.293,0.803 3.071,7.296 5.247,7.671"
         id="path7" /><path
         fill="#a1300b"
         d="m 17.032,12.136 c 0.335,1.339 -0.045,1.588 -0.849,1.789 -0.804,0.201 -1.727,0.278 -2.061,-1.061 -0.335,-1.339 0.045,-2.588 0.849,-2.789 0.804,-0.201 1.726,0.721 2.061,2.061 m 4.846,0.728 c -0.335,1.34 -1.258,1.262 -2.061,1.061 -0.804,-0.201 -1.184,-0.45 -0.849,-1.789 0.335,-1.34 1.258,-2.262 2.062,-2.061 0.803,0.2 1.183,1.449 0.848,2.789"
         id="path8" /><path
         id="circle8"
         style="fill:#f9f9f9"
         d="M 16,9.5 A 1.5,1.5 0 0 1 14.5,11 1.5,1.5 0 0 1 13,9.5 1.5,1.5 0 0 1 14.5,8 1.5,1.5 0 0 1 16,9.5 Z" /><path
         id="circle9"
         style="fill:#f9f9f9"
         d="M 23,9.5 A 1.5,1.5 0 0 1 21.5,11 1.5,1.5 0 0 1 20,9.5 1.5,1.5 0 0 1 21.5,8 1.5,1.5 0 0 1 23,9.5 Z" /><path
         fill="#f06033"
         d="M 9.053,21.529 C 8.913,21.765 6,22.261 6.75,20.798 7.5,19.335 9.193,21.295 9.053,21.529"
         id="path9" /><path
         fill="#f06033"
         d="m 9.891,20.124 c -0.218,0.225 -3.188,0.391 -1.922,-1.404 1.265,-1.793 2.234,1.082 1.922,1.404"
         id="path10" /><path
         fill="#f06033"
         d="m 11.657,18.66 c -0.378,0.231 -3.471,-0.501 -1.407,-1.932 1.872,-1.296 1.906,1.626 1.407,1.932"
         id="path11" /><path
         fill="#f06033"
         d="m 14.102,17.427 c -1.008,0.299 -3.378,-1.302 -0.881,-2.141 2.498,-0.839 1.889,1.842 0.881,2.141 m 12.754,4.102 c 0.141,0.235 3.053,0.731 2.303,-0.731 -0.75,-1.463 -2.443,0.497 -2.303,0.731"
         id="path12" /><path
         fill="#f06033"
         d="m 26.019,20.124 c 0.218,0.225 3.188,0.391 1.922,-1.404 -1.266,-1.793 -2.235,1.082 -1.922,1.404"
         id="path13" /><path
         fill="#f06033"
         d="m 24.253,18.66 c 0.378,0.231 3.471,-0.501 1.406,-1.932 -1.872,-1.296 -1.906,1.626 -1.406,1.932"
         id="path14" /><path
         fill="#f06033"
         d="m 21.808,17.427 c 1.008,0.299 3.378,-1.302 0.881,-2.141 -2.499,-0.839 -1.89,1.842 -0.881,2.141"
         id="path15" /><path
         fill="#a1300b"
         d="M 26.849,16.25 C 26.849,16.664 24.66,14 18,14 c -6.66,0 -8.848,2.664 -8.848,2.25 0,-0.414 2.754,-3.75 8.848,-3.75 6.094,0 8.849,3.336 8.849,3.75"
         id="path16" /><path
         fill="#f06033"
         d="m 10.793,24.433 c 0,-0.414 1.782,2.25 7.207,2.25 5.425,0 7.208,-2.664 7.208,-2.25 0,0.414 -2.244,3.75 -7.208,3.75 -4.964,0 -7.207,-3.336 -7.207,-3.75"
         id="path17" /></g></g></svg>
