<?xml version="1.0" encoding="UTF-8" standalone="no"?>
<!-- Created with Inkscape (http://www.inkscape.org/) -->

<svg
   width="512"
   height="512"
   viewBox="0 0 512 512"
   version="1.1"
   id="svg1"
   xml:space="preserve"
   xmlns="http://www.w3.org/2000/svg"
   xmlns:svg="http://www.w3.org/2000/svg"><defs
     id="defs1" /><g
     id="layer1"><g
       id="g3"
       transform="matrix(16.37049,0,0,16.37049,59.55412,101.81133)"
       style="display:inline"><path
         d="M 0,0 H 24 V 24 H 0 Z"
         fill="none"
         id="path1-0" /><path
         fill="currentColor"
         d="M 12,10 C 16.418,10 20,8.21 20,6 20,3.79 16.418,2 12,2 7.582,2 4,3.79 4,6 c 0,2.21 3.582,4 8,4"
         id="path2-12"
         style="fill:#ceada4;fill-opacity:1" /><path
         fill="currentColor"
         d="m 4,12 v 6 c 0,2.21 3.582,4 8,4 4.418,0 8,-1.79 8,-4 v -6 c 0,2.21 -3.582,4 -8,4 -4.418,0 -8,-1.79 -8,-4"
         opacity="0.5"
         id="path3-98"
         style="fill:#ceada4;fill-opacity:1" /><path
         fill="currentColor"
         d="m 4,6 v 6 c 0,2.21 3.582,4 8,4 4.418,0 8,-1.79 8,-4 V 6 c 0,2.21 -3.582,4 -8,4 C 7.582,10 4,8.21 4,6"
         opacity="0.7"
         id="path4-46"
         style="fill:#ceada4;fill-opacity:1" /></g><g
       id="g26"
       transform="matrix(4.4156644,0,0,4.4156644,176.90965,58.642305)"><path
         d="M 0,0 H 36 V 36 H 0 Z"
         fill="none"
         id="path1" /><path
         fill="#a1300b"
         d="M 6.96,20.637 C 7.028,21.276 6.417,21.865 5.592,21.952 4.768,22.041 4.045,21.595 3.977,20.957 3.909,20.318 4.521,19.73 5.345,19.643 6.169,19.554 6.892,19.999 6.96,20.637 m 2.087,2.717 c 0.125,0.818 -1.756,2.544 -2.576,2.669 A 1.5,1.5 0 0 1 4.763,24.766 c -0.125,-0.818 0.58,-1.14 1.398,-1.265 0.819,-0.124 2.761,-0.965 2.886,-0.147 m 1.783,2.104 c 0.173,0.81 -1.628,3.927 -2.438,4.1 -0.81,0.173 -1.645,0.146 -1.817,-0.665 -0.173,-0.81 0.306,-1.688 1.116,-1.861 0.81,-0.173 2.966,-2.384 3.139,-1.574 m 3.853,0.858 c 0.165,0.811 -1.338,4.354 -2.15,4.519 -0.812,0.165 -1.439,0.451 -1.604,-0.36 -0.165,-0.812 0.261,-1.975 1.006,-2.58 0.644,-0.523 2.584,-2.39 2.748,-1.579"
         id="path2" /><path
         fill="#a1300b"
         d="m 3.925,18.869 c 0.607,0.715 1.18,1.23 0.464,1.835 C 3.673,21.31 2.642,20.866 2.035,20.15 1.43,19.435 -0.204,16.73 0.511,16.125 1.228,15.519 3.32,18.154 3.925,18.869 m 0.33,4.88 C 5.147,24.044 6.112,24.55 5.818,25.44 5.524,26.331 4.49,26.431 3.599,26.138 2.71,25.843 -0.173,24.447 0.121,23.557 c 0.295,-0.89 3.244,-0.102 4.134,0.192 m 1.214,4.532 C 6.374,28.028 7.376,27.998 7.628,28.9 7.88,29.803 7.346,30.435 6.442,30.687 5.54,30.938 2.1,31.414 1.848,30.511 1.597,29.606 4.566,28.531 5.469,28.281 m 4.348,3.188 c 0.084,-0.937 0.644,-1.669 1.577,-1.585 0.934,0.085 1.258,1.025 1.173,1.96 -0.085,0.934 0.147,3.562 -1.715,4.016 C 9.94,36.081 9.731,32.4 9.817,31.469 M 29.04,20.637 c -0.068,0.639 0.543,1.228 1.367,1.315 0.824,0.089 1.547,-0.357 1.615,-0.995 0.068,-0.639 -0.544,-1.227 -1.367,-1.314 -0.824,-0.089 -1.547,0.356 -1.615,0.994 m -2.087,2.717 c -0.125,0.818 1.757,2.544 2.575,2.669 0.818,0.125 1.584,-0.438 1.709,-1.257 0.125,-0.819 -0.58,-1.14 -1.398,-1.265 -0.819,-0.124 -2.761,-0.965 -2.886,-0.147 m -1.783,2.104 c -0.173,0.81 1.628,3.927 2.438,4.1 0.81,0.173 1.644,0.146 1.816,-0.665 0.174,-0.81 -0.305,-1.688 -1.115,-1.861 -0.81,-0.173 -2.966,-2.384 -3.139,-1.574 m -3.853,0.858 c -0.166,0.811 1.338,4.354 2.149,4.519 0.812,0.165 1.438,0.451 1.604,-0.36 0.164,-0.812 -0.262,-1.975 -1.007,-2.58 -0.642,-0.523 -2.582,-2.39 -2.746,-1.579"
         id="path3" /><path
         fill="#a1300b"
         d="m 32.075,18.869 c -0.607,0.715 -1.18,1.23 -0.465,1.835 0.716,0.606 1.747,0.162 2.354,-0.554 0.605,-0.715 2.239,-3.42 1.523,-4.025 -0.715,-0.606 -2.807,2.029 -3.412,2.744 m -0.33,4.88 c -0.892,0.295 -1.857,0.801 -1.562,1.691 0.293,0.891 1.328,0.991 2.219,0.698 0.889,-0.295 3.771,-1.691 3.477,-2.581 -0.294,-0.89 -3.244,-0.102 -4.134,0.192 m -1.215,4.532 c -0.904,-0.253 -1.906,-0.283 -2.158,0.619 -0.252,0.903 0.282,1.535 1.185,1.787 0.902,0.251 4.343,0.727 4.594,-0.177 0.251,-0.904 -2.717,-1.979 -3.621,-2.229 m -4.347,3.188 c -0.084,-0.937 -0.645,-1.669 -1.577,-1.585 -0.935,0.085 -1.258,1.025 -1.173,1.96 0.084,0.934 -0.147,3.562 1.715,4.016 0.912,0.221 1.121,-3.46 1.035,-4.391 M 3.148,13.878 a 1.6974581,1.6974581 0 1 1 3.1,-1.384 c 0.381,0.855 2.651,5.612 1.795,5.994 C 7.187,18.87 3.53,14.733 3.148,13.878"
         id="path4" /><path
         fill="#a1300b"
         d="M 3.994,12.034 C 5.215,14.99 12.335,8.693 12.797,5.753 13.259,2.813 12.489,1.552 12.103,1.253 11.717,0.954 12.247,2.688 10.916,4.559 9.863,6.041 3.15,9.993 3.994,12.034 m 28.858,1.844 a 1.699,1.699 0 0 0 -3.101,-1.384 c -0.381,0.855 -2.65,5.612 -1.794,5.994 0.856,0.382 4.513,-3.755 4.895,-4.61"
         id="path5" /><path
         fill="#a1300b"
         d="m 32.007,12.034 c -1.222,2.956 -8.341,-3.341 -8.804,-6.281 -0.461,-2.939 0.309,-4.201 0.694,-4.5 0.386,-0.299 -0.144,1.435 1.187,3.306 1.054,1.482 7.766,5.434 6.923,7.475"
         id="path6" /><path
         fill="#d34516"
         d="m 6,22 c 0,-2 2,-10 12,-10 10,0 12,8 12,10 -5,3 -5.373,7 -12,7 -6.627,0 -6,-4 -12,-7 M 4.323,12.223 C 1.17,12.766 3.965,4.082 6.206,2.124 8.447,0.166 10.863,0.207 11.321,0.374 11.779,0.541 10.147,2.969 9.571,4.552 9.278,5.355 6.499,11.848 4.323,12.223 m 27.354,0 c 3.152,0.543 0.358,-8.141 -1.882,-10.099 -2.24,-1.958 -4.656,-1.917 -5.115,-1.75 -0.459,0.167 1.174,2.595 1.75,4.178 0.293,0.803 3.071,7.296 5.247,7.671"
         id="path7" /><path
         fill="#a1300b"
         d="m 17.032,12.136 c 0.335,1.339 -0.045,1.588 -0.849,1.789 -0.804,0.201 -1.727,0.278 -2.061,-1.061 -0.335,-1.339 0.045,-2.588 0.849,-2.789 0.804,-0.201 1.726,0.721 2.061,2.061 m 4.846,0.728 c -0.335,1.34 -1.258,1.262 -2.061,1.061 -0.804,-0.201 -1.184,-0.45 -0.849,-1.789 0.335,-1.34 1.258,-2.262 2.062,-2.061 0.803,0.2 1.183,1.449 0.848,2.789"
         id="path8" /><circle
         cx="14.5"
         cy="9.5"
         r="1.5"
         fill="#292f33"
         id="circle8"
         style="fill:#f9f9f9" /><circle
         cx="21.5"
         cy="9.5"
         r="1.5"
         fill="#292f33"
         id="circle9"
         style="fill:#f9f9f9" /><path
         fill="#f06033"
         d="M 9.053,21.529 C 8.913,21.765 6,22.261 6.75,20.798 7.5,19.335 9.193,21.295 9.053,21.529"
         id="path9" /><path
         fill="#f06033"
         d="m 9.891,20.124 c -0.218,0.225 -3.188,0.391 -1.922,-1.404 1.265,-1.793 2.234,1.082 1.922,1.404"
         id="path10" /><path
         fill="#f06033"
         d="m 11.657,18.66 c -0.378,0.231 -3.471,-0.501 -1.407,-1.932 1.872,-1.296 1.906,1.626 1.407,1.932"
         id="path11" /><path
         fill="#f06033"
         d="m 14.102,17.427 c -1.008,0.299 -3.378,-1.302 -0.881,-2.141 2.498,-0.839 1.889,1.842 0.881,2.141 m 12.754,4.102 c 0.141,0.235 3.053,0.731 2.303,-0.731 -0.75,-1.463 -2.443,0.497 -2.303,0.731"
         id="path12" /><path
         fill="#f06033"
         d="m 26.019,20.124 c 0.218,0.225 3.188,0.391 1.922,-1.404 -1.266,-1.793 -2.235,1.082 -1.922,1.404"
         id="path13" /><path
         fill="#f06033"
         d="m 24.253,18.66 c 0.378,0.231 3.471,-0.501 1.406,-1.932 -1.872,-1.296 -1.906,1.626 -1.406,1.932"
         id="path14" /><path
         fill="#f06033"
         d="m 21.808,17.427 c 1.008,0.299 3.378,-1.302 0.881,-2.141 -2.499,-0.839 -1.89,1.842 -0.881,2.141"
         id="path15" /><path
         fill="#a1300b"
         d="M 26.849,16.25 C 26.849,16.664 24.66,14 18,14 c -6.66,0 -8.848,2.664 -8.848,2.25 0,-0.414 2.754,-3.75 8.848,-3.75 6.094,0 8.849,3.336 8.849,3.75"
         id="path16" /><path
         fill="#f06033"
         d="m 10.793,24.433 c 0,-0.414 1.782,2.25 7.207,2.25 5.425,0 7.208,-2.664 7.208,-2.25 0,0.414 -2.244,3.75 -7.208,3.75 -4.964,0 -7.207,-3.336 -7.207,-3.75"
         id="path17" /></g></g></svg>
